<svg id="visual" viewBox="0 0 900 450" width="900" height="450" xmlns="http://www.w3.org/2000/svg" xmlns:xlink="http://www.w3.org/1999/xlink" version="1.1"><rect x="0" y="0" width="900" height="450" fill="#001220"></rect><path d="M0 120L21.5 130.2C43 140.3 86 160.7 128.8 170.5C171.7 180.3 214.3 179.7 257.2 171C300 162.3 343 145.7 385.8 140.7C428.7 135.7 471.3 142.3 514.2 150.8C557 159.3 600 169.7 642.8 168.5C685.7 167.3 728.3 154.7 771.2 153.7C814 152.7 857 163.3 878.5 168.7L900 174L900 0L878.5 0C857 0 814 0 771.2 0C728.3 0 685.7 0 642.8 0C600 0 557 0 514.2 0C471.3 0 428.7 0 385.8 0C343 0 300 0 257.2 0C214.3 0 171.7 0 128.8 0C86 0 43 0 21.5 0L0 0Z" fill="#6600ff"></path><path d="M0 112L21.5 115.7C43 119.3 86 126.7 128.8 126C171.7 125.3 214.3 116.7 257.2 109.3C300 102 343 96 385.8 103.2C428.7 110.3 471.3 130.7 514.2 137.8C557 145 600 139 642.8 133.5C685.7 128 728.3 123 771.2 119.7C814 116.3 857 114.7 878.5 113.8L900 113L900 0L878.5 0C857 0 814 0 771.2 0C728.3 0 685.7 0 642.8 0C600 0 557 0 514.2 0C471.3 0 428.7 0 385.8 0C343 0 300 0 257.2 0C214.3 0 171.7 0 128.8 0C86 0 43 0 21.5 0L0 0Z" fill="#393ffa"></path><path d="M0 86L21.5 85.5C43 85 86 84 128.8 89.3C171.7 94.7 214.3 106.3 257.2 104.2C300 102 343 86 385.8 79C428.7 72 471.3 74 514.2 74C557 74 600 72 642.8 75.5C685.7 79 728.3 88 771.2 90.3C814 92.7 857 88.3 878.5 86.2L900 84L900 0L878.5 0C857 0 814 0 771.2 0C728.3 0 685.7 0 642.8 0C600 0 557 0 514.2 0C471.3 0 428.7 0 385.8 0C343 0 300 0 257.2 0C214.3 0 171.7 0 128.8 0C86 0 43 0 21.5 0L0 0Z" fill="#0056ee"></path><path d="M0 57L21.5 61C43 65 86 73 128.8 77C171.7 81 214.3 81 257.2 79.8C300 78.7 343 76.3 385.8 72.2C428.7 68 471.3 62 514.2 63.2C557 64.3 600 72.7 642.8 74.5C685.7 76.3 728.3 71.7 771.2 65.2C814 58.7 857 50.3 878.5 46.2L900 42L900 0L878.5 0C857 0 814 0 771.2 0C728.3 0 685.7 0 642.8 0C600 0 557 0 514.2 0C471.3 0 428.7 0 385.8 0C343 0 300 0 257.2 0C214.3 0 171.7 0 128.8 0C86 0 43 0 21.5 0L0 0Z" fill="#0064dd"></path><path d="M0 47L21.5 42.7C43 38.3 86 29.7 128.8 27.5C171.7 25.3 214.3 29.7 257.2 30.3C300 31 343 28 385.8 30C428.7 32 471.3 39 514.2 41.8C557 44.7 600 43.3 642.8 42C685.7 40.7 728.3 39.3 771.2 41.2C814 43 857 48 878.5 50.5L900 53L900 0L878.5 0C857 0 814 0 771.2 0C728.3 0 685.7 0 642.8 0C600 0 557 0 514.2 0C471.3 0 428.7 0 385.8 0C343 0 300 0 257.2 0C214.3 0 171.7 0 128.8 0C86 0 43 0 21.5 0L0 0Z" fill="#246ec7"></path></svg>