<svg id="visual" viewBox="0 0 900 600" width="900" height="600" xmlns="http://www.w3.org/2000/svg" xmlns:xlink="http://www.w3.org/1999/xlink" version="1.1"><path d="M0 157L13.7 153C27.3 149 54.7 141 82 126C109.3 111 136.7 89 163.8 80C191 71 218 75 245.2 83C272.3 91 299.7 103 327 106C354.3 109 381.7 103 409 103C436.3 103 463.7 109 491 102C518.3 95 545.7 75 573 68C600.3 61 627.7 67 654.8 80C682 93 709 113 736.2 121C763.3 129 790.7 125 818 132C845.3 139 872.7 157 886.3 166L900 175L900 0L886.3 0C872.7 0 845.3 0 818 0C790.7 0 763.3 0 736.2 0C709 0 682 0 654.8 0C627.7 0 600.3 0 573 0C545.7 0 518.3 0 491 0C463.7 0 436.3 0 409 0C381.7 0 354.3 0 327 0C299.7 0 272.3 0 245.2 0C218 0 191 0 163.8 0C136.7 0 109.3 0 82 0C54.7 0 27.3 0 13.7 0L0 0Z" fill="#6659a8"></path><path d="M0 223L13.7 214C27.3 205 54.7 187 82 176C109.3 165 136.7 161 163.8 152C191 143 218 129 245.2 135C272.3 141 299.7 167 327 179C354.3 191 381.7 189 409 191C436.3 193 463.7 199 491 194C518.3 189 545.7 173 573 165C600.3 157 627.7 157 654.8 165C682 173 709 189 736.2 193C763.3 197 790.7 189 818 196C845.3 203 872.7 225 886.3 236L900 247L900 173L886.3 164C872.7 155 845.3 137 818 130C790.7 123 763.3 127 736.2 119C709 111 682 91 654.8 78C627.7 65 600.3 59 573 66C545.7 73 518.3 93 491 100C463.7 107 436.3 101 409 101C381.7 101 354.3 107 327 104C299.7 101 272.3 89 245.2 81C218 73 191 69 163.8 78C136.7 87 109.3 109 82 124C54.7 139 27.3 147 13.7 151L0 155Z" fill="#514399"></path><path d="M0 337L13.7 338C27.3 339 54.7 341 82 354C109.3 367 136.7 391 163.8 380C191 369 218 323 245.2 320C272.3 317 299.7 357 327 374C354.3 391 381.7 385 409 390C436.3 395 463.7 411 491 398C518.3 385 545.7 343 573 334C600.3 325 627.7 349 654.8 351C682 353 709 333 736.2 340C763.3 347 790.7 381 818 394C845.3 407 872.7 399 886.3 395L900 391L900 245L886.3 234C872.7 223 845.3 201 818 194C790.7 187 763.3 195 736.2 191C709 187 682 171 654.8 163C627.7 155 600.3 155 573 163C545.7 171 518.3 187 491 192C463.7 197 436.3 191 409 189C381.7 187 354.3 189 327 177C299.7 165 272.3 139 245.2 133C218 127 191 141 163.8 150C136.7 159 109.3 163 82 174C54.7 185 27.3 203 13.7 212L0 221Z" fill="#3a2e89"></path><path d="M0 439L13.7 440C27.3 441 54.7 443 82 450C109.3 457 136.7 469 163.8 462C191 455 218 429 245.2 431C272.3 433 299.7 463 327 479C354.3 495 381.7 497 409 495C436.3 493 463.7 487 491 463C518.3 439 545.7 397 573 392C600.3 387 627.7 419 654.8 433C682 447 709 443 736.2 447C763.3 451 790.7 463 818 462C845.3 461 872.7 447 886.3 440L900 433L900 389L886.3 393C872.7 397 845.3 405 818 392C790.7 379 763.3 345 736.2 338C709 331 682 351 654.8 349C627.7 347 600.3 323 573 332C545.7 341 518.3 383 491 396C463.7 409 436.3 393 409 388C381.7 383 354.3 389 327 372C299.7 355 272.3 315 245.2 318C218 321 191 367 163.8 378C136.7 389 109.3 365 82 352C54.7 339 27.3 337 13.7 336L0 335Z" fill="#302977"></path><path d="M0 601L13.7 601C27.3 601 54.7 601 82 601C109.3 601 136.7 601 163.8 601C191 601 218 601 245.2 601C272.3 601 299.7 601 327 601C354.3 601 381.7 601 409 601C436.3 601 463.7 601 491 601C518.3 601 545.7 601 573 601C600.3 601 627.7 601 654.8 601C682 601 709 601 736.2 601C763.3 601 790.7 601 818 601C845.3 601 872.7 601 886.3 601L900 601L900 431L886.3 438C872.7 445 845.3 459 818 460C790.7 461 763.3 449 736.2 445C709 441 682 445 654.8 431C627.7 417 600.3 385 573 390C545.7 395 518.3 437 491 461C463.7 485 436.3 491 409 493C381.7 495 354.3 493 327 477C299.7 461 272.3 431 245.2 429C218 427 191 453 163.8 460C136.7 467 109.3 455 82 448C54.7 441 27.3 439 13.7 438L0 437Z" fill="#272465"></path></svg>